<?xml version="1.0" encoding="UTF-8" standalone="no"?><!-- Generator: Gravit.io --><svg xmlns="http://www.w3.org/2000/svg" xmlns:xlink="http://www.w3.org/1999/xlink" style="isolation:isolate" viewBox="0 0 800 300" width="800pt" height="300pt"><defs><clipPath id="_clipPath_oAzAJVSzKZg7FDdfgSMTJAMpdZQmlBVL"><rect width="800" height="300"/></clipPath></defs><g clip-path="url(#_clipPath_oAzAJVSzKZg7FDdfgSMTJAMpdZQmlBVL)"><g><g><line x1="55.079" y1="209.224" x2="214.73" y2="16.1"/><rect x="128.964" y="-12.641" width="11.884" height="250.553" transform="matrix(0.771,0.637,-0.637,0.771,102.692,-60.132)" fill="rgb(14,59,94)"/></g><path d=" M 242.017 116.752 C 242.017 157.854 218.467 193.461 184.1 210.809 C 175.559 215.127 166.344 218.314 156.672 220.166 C 150.204 221.407 143.547 222.05 136.718 222.05 C 102.304 222.05 71.752 205.55 52.536 180.022 C 39.269 162.407 31.404 140.49 31.404 116.752 C 31.404 86.121 44.482 58.553 65.362 39.305 C 84.124 22.003 109.18 11.437 136.718 11.437 C 147.237 11.437 157.395 12.976 166.987 15.865 C 179.045 19.476 190.192 25.19 199.988 32.585 C 204.039 35.615 207.854 38.944 211.418 42.539 C 219.833 51.032 226.835 60.939 231.984 71.882 L 231.984 71.897 C 238.421 85.493 242.017 100.707 242.017 116.752 Z " fill="rgb(33,136,219)"/><g><rect x="127.628" y="241.66" width="18.196" height="35.058" transform="matrix(1,0,0,1,0,0)" fill="rgb(9,40,64)"/></g><g><path d=" M 171.43 282.683 L 171.43 293.029 C 171.43 293.673 170.896 294.207 170.253 294.207 L 103.167 294.207 C 102.524 294.207 101.99 293.673 101.99 293.029 L 101.99 282.683 C 101.99 277.455 106.229 273.2 111.473 273.2 L 161.948 273.2 C 167.191 273.216 171.43 277.455 171.43 282.683 Z " fill="rgb(14,59,94)"/></g><g><path d=" M 189.626 293.186 L 189.626 298.823 C 189.626 299.466 189.093 300 188.449 300 L 84.987 300 C 84.343 300 83.81 299.466 83.81 298.823 L 83.81 293.186 C 83.81 288.555 87.122 284.708 91.503 283.876 C 92.083 283.766 92.68 283.704 93.277 283.704 L 180.144 283.704 C 185.387 283.704 189.626 287.943 189.626 293.186 Z " fill="rgb(9,40,64)"/></g><g><path d=" M 136.718 248.646 C 98.881 248.646 62.819 232.365 37.762 203.964 C 35.203 201.06 35.486 196.648 38.374 194.089 C 41.279 191.53 45.69 191.813 48.25 194.701 C 70.637 220.088 102.885 234.642 136.702 234.642 C 144.207 234.642 151.727 233.935 159.043 232.522 C 169.719 230.481 180.049 226.949 189.752 222.05 C 229.755 201.86 254.592 161.512 254.592 116.736 C 254.592 99.168 250.824 82.275 243.382 66.497 L 242.959 65.586 C 237.26 53.748 229.645 43.01 220.351 33.637 C 212.281 25.52 203.097 18.628 193.08 13.149 C 189.689 11.296 188.433 7.042 190.286 3.65 C 192.138 0.259 196.393 -0.997 199.784 0.856 C 210.994 6.979 221.261 14.672 230.289 23.762 C 240.949 34.5 249.631 46.872 256.068 60.499 L 256.743 61.944 C 264.624 79.182 268.628 97.598 268.628 116.705 C 268.628 166.787 240.839 211.924 196.095 234.5 C 185.23 239.98 173.66 243.936 161.712 246.228 C 153.517 247.861 145.117 248.646 136.718 248.646 Z " fill="rgb(14,59,94)"/></g><path d=" M 166.987 15.865 C 160.535 39.587 147.253 80.25 130.988 84.473 C 107.877 90.47 89.038 71.631 92.46 99.875 C 95.883 128.118 56.508 130.693 56.508 130.693 C 56.508 130.693 49.663 118.714 65.928 96.452 C 82.193 74.19 74.484 59.636 74.484 59.636 C 74.484 59.636 70.057 50.64 65.362 39.305 C 84.124 22.003 109.196 11.437 136.718 11.437 C 147.237 11.453 157.395 12.992 166.987 15.865 Z " fill="rgb(73,232,95)"/><path d=" M 230.289 108.07 C 235.423 114.538 209.738 146.11 199.47 130.709 C 189.202 115.307 139.544 134.995 132.699 125.575 C 125.854 116.155 147.253 110.174 147.253 93.045 C 147.253 75.917 186.628 93.045 186.628 93.045 C 186.628 93.045 199.031 65.712 211.433 42.554 C 219.864 51.032 226.851 60.955 232.016 71.897 L 232.016 71.913 C 232.864 91.805 225.155 101.586 230.289 108.07 Z " fill="rgb(73,232,95)"/><path d=" M 184.288 198.328 C 185.262 201.013 185.058 205.597 184.116 210.825 C 175.575 215.143 166.359 218.33 156.672 220.182 C 148.964 202.08 139.465 178.939 131.349 179.504 C 116.151 180.556 136.985 145.263 164.381 157.242 C 191.777 169.221 199.486 159.706 202.045 166.614 C 204.604 173.491 180.536 187.919 184.288 198.328 Z " fill="rgb(73,232,95)"/><g opacity="0.1"><path d=" M 221.073 95.871 C 221.073 136.973 197.523 172.58 163.172 189.913 C 154.631 194.23 145.416 197.417 135.729 199.286 C 129.261 200.526 122.604 201.17 115.774 201.17 C 92.021 201.17 70.119 193.304 52.504 180.038 C 39.238 162.423 31.372 140.506 31.372 116.767 C 31.372 86.137 44.45 58.568 65.331 39.32 C 84.092 22.019 109.149 11.453 136.687 11.453 C 147.205 11.453 157.363 12.992 166.956 15.881 C 179.013 19.491 190.16 25.206 199.957 32.601 C 204.259 38.3 207.995 44.454 211.072 50.985 L 211.072 51.001 C 217.478 64.597 221.073 79.81 221.073 95.871 Z " fill="rgb(255,255,255)"/></g></g><g clip-path="url(#_clipPath_gwzCHUpwOjVvDkqCss6BxrimJy96Ljyx)"><text transform="matrix(1,0,0,1,278,128.649)" style="font-family:'Ubuntu';font-weight:400;font-size:80px;font-style:normal;fill:#0e3b5e;stroke:none;">Leon`s</text><text transform="matrix(1,0,0,1,278,218.329)" style="font-family:'Ubuntu';font-weight:400;font-size:80px;font-style:normal;fill:#0e3b5e;stroke:none;">Lernplattform</text></g><defs><clipPath id="_clipPath_gwzCHUpwOjVvDkqCss6BxrimJy96Ljyx"><rect x="0" y="0" width="517" height="179.36" transform="matrix(1,0,0,1,278,54.089)"/></clipPath></defs></g></svg>